<?xml version="1.0" encoding="UTF-8"?>
<svg xmlns="http://www.w3.org/2000/svg" width="256" height="256" viewBox="0 0 256 256">
  <defs>
    <linearGradient id="g" x1="0" x2="1" y1="0" y2="1">
      <stop offset="0%" stop-color="#5eead4"/>
      <stop offset="100%" stop-color="#0d9488"/>
    </linearGradient>
    <filter id="s" x="-20%" y="-20%" width="140%" height="140%">
      <feDropShadow dx="0" dy="4" stdDeviation="6" flood-color="#0d948880"/>
    </filter>
  </defs>
  <rect width="256" height="256" rx="40" fill="none"/>
  <g filter="url(#s)">
    <path d="M140 24c26 46 9 82-28 112 10-32 7-52-28-68 14 26 8 50-24 72 10-20 10-36-12-48 8 18 6 34-10 48 10 8 26 12 36 12-4 18 0 36 12 52 32 0 56-12 72-36 14-22 18-50 4-84z" fill="url(#g)"/>
    <path d="M206 112c-6 0-10 2-14 6-10 10-16 24-30 30 6-8 10-16 12-26-10 12-22 20-38 26 6-14 6-28 0-42-8 18-22 32-42 40 6-10 8-20 6-32-8 14-22 22-44 24 18 10 36 14 54 14-2 22 8 40 28 54 18-6 34-16 46-32 12-14 18-32 22-52z" fill="url(#g)" opacity="0.6"/>
  </g>
  <text x="128" y="238" text-anchor="middle" font-family="Inter,Segoe UI,Arial" font-size="28" font-weight="700" fill="#0f766e">PHOENIX</text>
</svg>